<svg xmlns="http://www.w3.org/2000/svg" viewBox="0 0 800 540" role="img" aria-label="Abstract neural map and fly" preserveAspectRatio="xMidYMid slice">
  <rect width="800" height="540" fill="#e6ece5"/>
  <g fill="none" stroke="#102238" stroke-width="3" opacity=".78"><path d="M35 395 C150 165 265 520 375 260 S560 190 770 250"/><path d="M90 75 C180 223 330 28 455 206 S635 430 730 350"/><path d="M0 273 C115 331 184 155 280 250 S425 445 545 316 S665 278 800 352"/></g>
  <g fill="#ee7655"><circle cx="35" cy="395" r="12"/><circle cx="375" cy="260" r="15"/><circle cx="455" cy="206" r="10"/><circle cx="730" cy="350" r="13"/><circle cx="280" cy="250" r="10"/></g>
  <g transform="translate(430 268) rotate(-12)"><ellipse rx="72" ry="39" fill="#102238"/><ellipse cx="-80" cy="0" rx="36" ry="31" fill="#73bfc3"/><circle cx="-96" cy="-9" r="6" fill="#102238"/><path d="M-110 -25 C-154 -62 -175 -55 -190 -39 M-98 -33 C-116 -75 -144 -88 -165 -78" fill="none" stroke="#102238" stroke-width="5" stroke-linecap="round"/><path d="M0 -32 C50 -100 131 -104 184 -68 C118 -35 70 -2 10 12Z" fill="#b7c79e"/><path d="M-2 24 C48 86 123 85 179 47 C118 19 70 -7 8 -13Z" fill="#f0c85a"/><path d="M59 19 L180 82 M52 34 L141 132 M16 34 L-4 145 M-12 35 L-86 130" stroke="#102238" stroke-width="7" stroke-linecap="round"/></g>
</svg>
