<svg xmlns="http://www.w3.org/2000/svg" viewBox="0 0 1000 760" role="img" aria-label="Abstract fly and descending neural circuit" preserveAspectRatio="xMidYMid slice">
  <rect width="1000" height="760" fill="#102238"/>
  <g opacity=".32" stroke="#73bfc3" fill="none" stroke-width="3">
    <path d="M70 130 C180 40 260 190 350 116 S550 80 610 210 S820 230 970 95"/>
    <path d="M60 625 C210 500 330 700 450 560 S680 400 920 620"/>
    <path d="M180 0 C260 170 180 260 300 355 S410 480 240 720"/>
    <path d="M760 0 C650 155 800 265 670 350 S570 520 785 750"/>
  </g>
  <g fill="#f0c85a" opacity=".95">
    <circle cx="103" cy="128" r="8"/><circle cx="212" cy="86" r="6"/><circle cx="350" cy="116" r="11"/><circle cx="610" cy="210" r="8"/><circle cx="818" cy="224" r="10"/><circle cx="915" cy="118" r="7"/>
    <circle cx="150" cy="585" r="9"/><circle cx="300" cy="630" r="6"/><circle cx="450" cy="560" r="12"/><circle cx="680" cy="415" r="8"/><circle cx="900" cy="606" r="10"/>
  </g>
  <g transform="translate(466 355) rotate(-8)">
    <ellipse cx="0" cy="0" rx="89" ry="49" fill="#f7f4ec"/>
    <ellipse cx="-99" cy="-5" rx="44" ry="39" fill="#e6ece5"/>
    <circle cx="-121" cy="-15" r="7" fill="#102238"/>
    <circle cx="-82" cy="-15" r="7" fill="#102238"/>
    <path d="M-137 -34 C-171 -76 -199 -75 -217 -58 M-122 -41 C-139 -90 -166 -103 -190 -94" fill="none" stroke="#f7f4ec" stroke-width="6" stroke-linecap="round"/>
    <path d="M-5 -38 C38 -127 132 -170 207 -143 C148 -80 96 -12 22 15 Z" fill="#73bfc3" opacity=".95"/>
    <path d="M14 31 C63 101 146 142 211 114 C155 59 99 9 18 -10 Z" fill="#b7c79e" opacity=".95"/>
    <path d="M73 21 C151 17 205 50 244 91" fill="none" stroke="#f7f4ec" stroke-width="8" stroke-linecap="round"/>
    <path d="M61 44 C134 70 173 121 192 167" fill="none" stroke="#f7f4ec" stroke-width="8" stroke-linecap="round"/>
    <path d="M39 39 C56 112 40 164 7 201 M-10 40 C-27 106 -66 157 -108 178" fill="none" stroke="#f7f4ec" stroke-width="8" stroke-linecap="round"/>
    <path d="M36 -42 C99 -70 148 -73 209 -51" fill="none" stroke="#ee7655" stroke-width="14" stroke-linecap="round"/>
    <path d="M-19 8 C22 5 39 5 72 12" fill="none" stroke="#ee7655" stroke-width="5"/>
  </g>
  <g fill="#ee7655" opacity=".85"><circle cx="355" cy="262" r="12"/><circle cx="691" cy="298" r="9"/><circle cx="722" cy="508" r="14"/><circle cx="260" cy="508" r="11"/></g>
  <text x="52" y="704" fill="#f7f4ec" font-family="Georgia, serif" font-size="25" opacity=".8">the nervous system in motion</text>
</svg>
