<svg xmlns="http://www.w3.org/2000/svg" viewBox="0 0 800 540" role="img" aria-label="Abstract people and neural pathways" preserveAspectRatio="xMidYMid slice">
  <rect width="800" height="540" fill="#eadedc"/>
  <path d="M75 391 C156 266 217 300 300 369 S470 436 545 300 S677 177 760 251" fill="none" stroke="#102238" stroke-width="5"/>
  <g fill="#f0c85a"><circle cx="75" cy="391" r="14"/><circle cx="300" cy="369" r="12"/><circle cx="545" cy="300" r="15"/><circle cx="760" cy="251" r="11"/></g>
  <g transform="translate(101 190)"><circle cx="64" cy="58" r="34" fill="#ee7655"/><path d="M64 102 L64 229 M18 145 L64 122 L110 145 M64 228 L30 285 M64 228 L102 285" stroke="#102238" stroke-width="16" stroke-linecap="round"/></g>
  <g transform="translate(314 143)"><circle cx="64" cy="58" r="34" fill="#73bfc3"/><path d="M64 102 L64 229 M18 145 L64 122 L110 145 M64 228 L30 285 M64 228 L102 285" stroke="#102238" stroke-width="16" stroke-linecap="round"/></g>
  <g transform="translate(527 218)"><circle cx="64" cy="58" r="34" fill="#b7c79e"/><path d="M64 102 L64 229 M18 145 L64 122 L110 145 M64 228 L30 285 M64 228 L102 285" stroke="#102238" stroke-width="16" stroke-linecap="round"/></g>
  <g fill="#102238" opacity=".65"><circle cx="89" cy="91" r="5"/><circle cx="267" cy="240" r="8"/><circle cx="499" cy="395" r="6"/><circle cx="699" cy="188" r="9"/></g>
</svg>
